<svg xmlns="http://www.w3.org/2000/svg" xmlns:xlink="http://www.w3.org/1999/xlink" version="1.1" class="marks" width="863" height="379" viewBox="0 0 863 379"><rect width="863" height="379" fill="white"/><g fill="none" stroke-miterlimit="10" transform="translate(53,27)"><g class="mark-group role-frame root" role="graphics-object" aria-roledescription="group mark container"><g transform="translate(0,0)"><path class="background" aria-hidden="true" d="M0.5,0.5h700v280h-700Z" stroke="#ddd"/><g><g class="mark-group role-axis" aria-hidden="true"><g transform="translate(0.5,0.5)"><path class="background" aria-hidden="true" d="M0,0h0v0h0Z" pointer-events="none"/><g><g class="mark-rule role-axis-grid" pointer-events="none"><line transform="translate(0,280)" x2="700" y2="0" stroke="#ddd" stroke-width="1" opacity="1"/><line transform="translate(0,249)" x2="700" y2="0" stroke="#ddd" stroke-width="1" opacity="1"/><line transform="translate(0,218)" x2="700" y2="0" stroke="#ddd" stroke-width="1" opacity="1"/><line transform="translate(0,187)" x2="700" y2="0" stroke="#ddd" stroke-width="1" opacity="1"/><line transform="translate(0,156)" x2="700" y2="0" stroke="#ddd" stroke-width="1" opacity="1"/><line transform="translate(0,124)" x2="700" y2="0" stroke="#ddd" stroke-width="1" opacity="1"/><line transform="translate(0,93)" x2="700" y2="0" stroke="#ddd" stroke-width="1" opacity="1"/><line transform="translate(0,62)" x2="700" y2="0" stroke="#ddd" stroke-width="1" opacity="1"/><line transform="translate(0,31)" x2="700" y2="0" stroke="#ddd" stroke-width="1" opacity="1"/><line transform="translate(0,0)" x2="700" y2="0" stroke="#ddd" stroke-width="1" opacity="1"/></g></g><path class="foreground" aria-hidden="true" d="" pointer-events="none" display="none"/></g></g><g class="mark-group role-axis" role="graphics-symbol" aria-roledescription="axis" aria-label="X-axis titled 'Commit' for a discrete scale with 10 values: bfd13910, a05855cc, 4064739a, b7f13fb3, 7160eea2, ending with 3af5bf9a"><g transform="translate(0.5,280.5)"><path class="background" aria-hidden="true" d="M0,0h0v0h0Z" pointer-events="none"/><g><g class="mark-rule role-axis-tick" pointer-events="none"><line transform="translate(35,0)" x2="0" y2="5" stroke="#888" stroke-width="1" opacity="1"/><line transform="translate(105,0)" x2="0" y2="5" stroke="#888" stroke-width="1" opacity="1"/><line transform="translate(175,0)" x2="0" y2="5" stroke="#888" stroke-width="1" opacity="1"/><line transform="translate(245,0)" x2="0" y2="5" stroke="#888" stroke-width="1" opacity="1"/><line transform="translate(315,0)" x2="0" y2="5" stroke="#888" stroke-width="1" opacity="1"/><line transform="translate(385,0)" x2="0" y2="5" stroke="#888" stroke-width="1" opacity="1"/><line transform="translate(455,0)" x2="0" y2="5" stroke="#888" stroke-width="1" opacity="1"/><line transform="translate(525,0)" x2="0" y2="5" stroke="#888" stroke-width="1" opacity="1"/><line transform="translate(595,0)" x2="0" y2="5" stroke="#888" stroke-width="1" opacity="1"/><line transform="translate(665,0)" x2="0" y2="5" stroke="#888" stroke-width="1" opacity="1"/></g><g class="mark-text role-axis-label" pointer-events="none"><text text-anchor="end" transform="translate(35,7) rotate(270) translate(0,3)" font-family="sans-serif" font-size="10px" fill="#000" opacity="1">bfd13910</text><text text-anchor="end" transform="translate(105,7) rotate(270) translate(0,3)" font-family="sans-serif" font-size="10px" fill="#000" opacity="1">a05855cc</text><text text-anchor="end" transform="translate(175,7) rotate(270) translate(0,3)" font-family="sans-serif" font-size="10px" fill="#000" opacity="1">4064739a</text><text text-anchor="end" transform="translate(245,7) rotate(270) translate(0,3)" font-family="sans-serif" font-size="10px" fill="#000" opacity="1">b7f13fb3</text><text text-anchor="end" transform="translate(315,7) rotate(270) translate(0,3)" font-family="sans-serif" font-size="10px" fill="#000" opacity="1">7160eea2</text><text text-anchor="end" transform="translate(385,7) rotate(270) translate(0,3)" font-family="sans-serif" font-size="10px" fill="#000" opacity="1">6c5aeef5</text><text text-anchor="end" transform="translate(455,7) rotate(270) translate(0,3)" font-family="sans-serif" font-size="10px" fill="#000" opacity="1">b0428a3d</text><text text-anchor="end" transform="translate(525,7) rotate(270) translate(0,3)" font-family="sans-serif" font-size="10px" fill="#000" opacity="1">2a35fb8a</text><text text-anchor="end" transform="translate(595,7) rotate(270) translate(0,3)" font-family="sans-serif" font-size="10px" fill="#000" opacity="1">0d288678</text><text text-anchor="end" transform="translate(665,7) rotate(270) translate(0,3)" font-family="sans-serif" font-size="10px" fill="#000" opacity="1">3af5bf9a</text></g><g class="mark-rule role-axis-domain" pointer-events="none"><line transform="translate(0,0)" x2="700" y2="0" stroke="#888" stroke-width="1" opacity="1"/></g><g class="mark-text role-axis-title" pointer-events="none"><text text-anchor="middle" transform="translate(350,64.4921875)" font-family="sans-serif" font-size="11px" font-weight="bold" fill="#000" opacity="1">Commit</text></g></g><path class="foreground" aria-hidden="true" d="" pointer-events="none" display="none"/></g></g><g class="mark-group role-axis" role="graphics-symbol" aria-roledescription="axis" aria-label="Y-axis titled 'Build time (ms)' for a linear scale with values from 0 to 9,000"><g transform="translate(0.5,0.5)"><path class="background" aria-hidden="true" d="M0,0h0v0h0Z" pointer-events="none"/><g><g class="mark-rule role-axis-tick" pointer-events="none"><line transform="translate(0,280)" x2="-5" y2="0" stroke="#888" stroke-width="1" opacity="1"/><line transform="translate(0,249)" x2="-5" y2="0" stroke="#888" stroke-width="1" opacity="1"/><line transform="translate(0,218)" x2="-5" y2="0" stroke="#888" stroke-width="1" opacity="1"/><line transform="translate(0,187)" x2="-5" y2="0" stroke="#888" stroke-width="1" opacity="1"/><line transform="translate(0,156)" x2="-5" y2="0" stroke="#888" stroke-width="1" opacity="1"/><line transform="translate(0,124)" x2="-5" y2="0" stroke="#888" stroke-width="1" opacity="1"/><line transform="translate(0,93)" x2="-5" y2="0" stroke="#888" stroke-width="1" opacity="1"/><line transform="translate(0,62)" x2="-5" y2="0" stroke="#888" stroke-width="1" opacity="1"/><line transform="translate(0,31)" x2="-5" y2="0" stroke="#888" stroke-width="1" opacity="1"/><line transform="translate(0,0)" x2="-5" y2="0" stroke="#888" stroke-width="1" opacity="1"/></g><g class="mark-text role-axis-label" pointer-events="none"><text text-anchor="end" transform="translate(-7,283)" font-family="sans-serif" font-size="10px" fill="#000" opacity="1">0</text><text text-anchor="end" transform="translate(-7,251.88888888888889)" font-family="sans-serif" font-size="10px" fill="#000" opacity="1">1,000</text><text text-anchor="end" transform="translate(-7,220.77777777777777)" font-family="sans-serif" font-size="10px" fill="#000" opacity="1">2,000</text><text text-anchor="end" transform="translate(-7,189.66666666666669)" font-family="sans-serif" font-size="10px" fill="#000" opacity="1">3,000</text><text text-anchor="end" transform="translate(-7,158.55555555555557)" font-family="sans-serif" font-size="10px" fill="#000" opacity="1">4,000</text><text text-anchor="end" transform="translate(-7,127.44444444444444)" font-family="sans-serif" font-size="10px" fill="#000" opacity="1">5,000</text><text text-anchor="end" transform="translate(-7,96.33333333333334)" font-family="sans-serif" font-size="10px" fill="#000" opacity="1">6,000</text><text text-anchor="end" transform="translate(-7,65.22222222222223)" font-family="sans-serif" font-size="10px" fill="#000" opacity="1">7,000</text><text text-anchor="end" transform="translate(-7,34.11111111111113)" font-family="sans-serif" font-size="10px" fill="#000" opacity="1">8,000</text><text text-anchor="end" transform="translate(-7,3)" font-family="sans-serif" font-size="10px" fill="#000" opacity="1">9,000</text></g><g class="mark-rule role-axis-domain" pointer-events="none"><line transform="translate(0,280)" x2="0" y2="-280" stroke="#888" stroke-width="1" opacity="1"/></g><g class="mark-text role-axis-title" pointer-events="none"><text text-anchor="middle" transform="translate(-36.0244140625,140) rotate(-90) translate(0,-2)" font-family="sans-serif" font-size="11px" font-weight="bold" fill="#000" opacity="1">Build time (ms)</text></g></g><path class="foreground" aria-hidden="true" d="" pointer-events="none" display="none"/></g></g><g class="mark-group role-scope layer_0_pathgroup" role="graphics-object" aria-roledescription="group mark container"><g transform="translate(0,0)"><path class="background" aria-hidden="true" d="M0,0h700v280h-700Z"/><g><g class="mark-line role-mark layer_0_marks" role="graphics-object" aria-roledescription="line mark container"><path aria-label="Commit: bfd13910; Build time (ms): 8452; No bench binary: false; label: bfd13910; build_ms: 8452; bench_unavailable: false; subject: add SceneProperties uniform and egui controls" role="graphics-symbol" aria-roledescription="line mark" d="M35,17.049L105,266.467L175,134.773L245,84.249L315,127.244L385,129.422L455,131.133L525,273.124L595,272.72L665,271.787" stroke="steelblue" stroke-width="2"/></g></g><path class="foreground" aria-hidden="true" d="" display="none"/></g></g><g class="mark-symbol role-mark layer_1_marks" role="graphics-object" aria-roledescription="symbol mark container"><path aria-label="Commit: bfd13910; Build time (ms): 8452; No bench binary: false; label: bfd13910; build_ms: 8452; bench_unavailable: false; subject: add SceneProperties uniform and egui controls" role="graphics-symbol" aria-roledescription="point" transform="translate(35,17.048888888888886)" d="M2.739,0A2.739,2.739,0,1,1,-2.739,0A2.739,2.739,0,1,1,2.739,0" fill="steelblue" stroke-width="2" opacity="1"/><path aria-label="Commit: a05855cc; Build time (ms): 435; No bench binary: false; label: a05855cc; build_ms: 435; bench_unavailable: false; subject: specify astronomore binary in just run" role="graphics-symbol" aria-roledescription="point" transform="translate(105,266.46666666666664)" d="M2.739,0A2.739,2.739,0,1,1,-2.739,0A2.739,2.739,0,1,1,2.739,0" fill="steelblue" stroke-width="2" opacity="1"/><path aria-label="Commit: 4064739a; Build time (ms): 4668; No bench binary: false; label: 4064739a; build_ms: 4668; bench_unavailable: false; subject: add runtime sphere tessellation controls to egui" role="graphics-symbol" aria-roledescription="point" transform="translate(175,134.7733333333333)" d="M2.739,0A2.739,2.739,0,1,1,-2.739,0A2.739,2.739,0,1,1,2.739,0" fill="steelblue" stroke-width="2" opacity="1"/><path aria-label="Commit: b7f13fb3; Build time (ms): 6292; No bench binary: false; label: b7f13fb3; build_ms: 6292; bench_unavailable: false; subject: feat: add planetary textures and orbital models" role="graphics-symbol" aria-roledescription="point" transform="translate(245,84.24888888888889)" d="M2.739,0A2.739,2.739,0,1,1,-2.739,0A2.739,2.739,0,1,1,2.739,0" fill="steelblue" stroke-width="2" opacity="1"/><path aria-label="Commit: 7160eea2; Build time (ms): 4910; No bench binary: false; label: 7160eea2; build_ms: 4910; bench_unavailable: false; subject: Add toggleable name overlays for all celestial bodies" role="graphics-symbol" aria-roledescription="point" transform="translate(315,127.24444444444444)" d="M2.739,0A2.739,2.739,0,1,1,-2.739,0A2.739,2.739,0,1,1,2.739,0" fill="steelblue" stroke-width="2" opacity="1"/><path aria-label="Commit: 6c5aeef5; Build time (ms): 4840; No bench binary: false; label: 6c5aeef5; build_ms: 4840; bench_unavailable: false; subject: Translate all GUI strings from German to English" role="graphics-symbol" aria-roledescription="point" transform="translate(385,129.42222222222222)" d="M2.739,0A2.739,2.739,0,1,1,-2.739,0A2.739,2.739,0,1,1,2.739,0" fill="steelblue" stroke-width="2" opacity="1"/><path aria-label="Commit: b0428a3d; Build time (ms): 4785; No bench binary: false; label: b0428a3d; build_ms: 4785; bench_unavailable: false; subject: Fix name label alignment: render below projected body position" role="graphics-symbol" aria-roledescription="point" transform="translate(455,131.13333333333335)" d="M2.739,0A2.739,2.739,0,1,1,-2.739,0A2.739,2.739,0,1,1,2.739,0" fill="steelblue" stroke-width="2" opacity="1"/><path aria-label="Commit: 2a35fb8a; Build time (ms): 221; No bench binary: false; label: 2a35fb8a; build_ms: 221; bench_unavailable: false; subject: Merge pull request #14 from AntonHermann/claude/celestial-name-overlays-fEV49" role="graphics-symbol" aria-roledescription="point" transform="translate(525,273.12444444444446)" d="M2.739,0A2.739,2.739,0,1,1,-2.739,0A2.739,2.739,0,1,1,2.739,0" fill="steelblue" stroke-width="2" opacity="1"/><path aria-label="Commit: 0d288678; Build time (ms): 234; No bench binary: false; label: 0d288678; build_ms: 234; bench_unavailable: false; subject: docs: update README and project plan to reflect current state (#13)" role="graphics-symbol" aria-roledescription="point" transform="translate(595,272.71999999999997)" d="M2.739,0A2.739,2.739,0,1,1,-2.739,0A2.739,2.739,0,1,1,2.739,0" fill="steelblue" stroke-width="2" opacity="1"/><path aria-label="Commit: 3af5bf9a; Build time (ms): 264; No bench binary: false; label: 3af5bf9a; build_ms: 264; bench_unavailable: false; subject: Add historical benchmark range script and marimo report notebook" role="graphics-symbol" aria-roledescription="point" transform="translate(665,271.7866666666667)" d="M2.739,0A2.739,2.739,0,1,1,-2.739,0A2.739,2.739,0,1,1,2.739,0" fill="steelblue" stroke-width="2" opacity="1"/></g><g class="mark-group role-legend" role="graphics-symbol" aria-roledescription="legend" aria-label="Symbol legend titled 'No bench binary' for fill color and stroke color with 1 value: false"><g transform="translate(718,0)"><path class="background" aria-hidden="true" d="M0,0h87v29h-87Z" pointer-events="none"/><g><g class="mark-group role-legend-entry"><g transform="translate(0,16)"><path class="background" aria-hidden="true" d="M0,0h0v0h0Z" pointer-events="none"/><g><g class="mark-group role-scope" role="graphics-object" aria-roledescription="group mark container"><g transform="translate(0,0)"><path class="background" aria-hidden="true" d="M0,0h37.123046875v12.5h-37.123046875Z" pointer-events="none" opacity="1"/><g><g class="mark-symbol role-legend-symbol" pointer-events="none"><path transform="translate(6,6)" d="M5,0A5,5,0,1,1,-5,0A5,5,0,1,1,5,0" fill="steelblue" stroke="steelblue" stroke-width="1.5" opacity="1"/></g><g class="mark-text role-legend-label" pointer-events="none"><text text-anchor="start" transform="translate(16,9)" font-family="sans-serif" font-size="10px" fill="#000" opacity="1">false</text></g></g><path class="foreground" aria-hidden="true" d="" pointer-events="none" display="none"/></g></g></g><path class="foreground" aria-hidden="true" d="" pointer-events="none" display="none"/></g></g><g class="mark-text role-legend-title" pointer-events="none"><text text-anchor="start" transform="translate(0,9)" font-family="sans-serif" font-size="11px" font-weight="bold" fill="#000" opacity="1">No bench binary</text></g></g><path class="foreground" aria-hidden="true" d="" pointer-events="none" display="none"/></g></g><g class="mark-group role-title"><g transform="translate(350,-22)"><path class="background" aria-hidden="true" d="M0,0h0v0h0Z" pointer-events="none"/><g><g class="mark-text role-title-text" role="graphics-symbol" aria-roledescription="title" aria-label="Title text 'Build Time per Commit'" pointer-events="none"><text text-anchor="middle" transform="translate(0,10)" font-family="sans-serif" font-size="13px" font-weight="bold" fill="#000" opacity="1">Build Time per Commit</text></g></g><path class="foreground" aria-hidden="true" d="" pointer-events="none" display="none"/></g></g></g><path class="foreground" aria-hidden="true" d="" display="none"/></g></g></g></svg>