<svg xmlns="http://www.w3.org/2000/svg" xmlns:xlink="http://www.w3.org/1999/xlink" version="1.1" class="marks" width="869" height="379" viewBox="0 0 869 379"><rect width="869" height="379" fill="white"/><g fill="none" stroke-miterlimit="10" transform="translate(44,27)"><g class="mark-group role-frame root" role="graphics-object" aria-roledescription="group mark container"><g transform="translate(0,0)"><path class="background" aria-hidden="true" d="M0.5,0.5h700v280h-700Z" stroke="#ddd"/><g><g class="mark-group role-axis" aria-hidden="true"><g transform="translate(0.5,0.5)"><path class="background" aria-hidden="true" d="M0,0h0v0h0Z" pointer-events="none"/><g><g class="mark-rule role-axis-grid" pointer-events="none"><line transform="translate(0,280)" x2="700" y2="0" stroke="#ddd" stroke-width="1" opacity="1"/><line transform="translate(0,245)" x2="700" y2="0" stroke="#ddd" stroke-width="1" opacity="1"/><line transform="translate(0,210)" x2="700" y2="0" stroke="#ddd" stroke-width="1" opacity="1"/><line transform="translate(0,175)" x2="700" y2="0" stroke="#ddd" stroke-width="1" opacity="1"/><line transform="translate(0,140)" x2="700" y2="0" stroke="#ddd" stroke-width="1" opacity="1"/><line transform="translate(0,105)" x2="700" y2="0" stroke="#ddd" stroke-width="1" opacity="1"/><line transform="translate(0,70)" x2="700" y2="0" stroke="#ddd" stroke-width="1" opacity="1"/><line transform="translate(0,35)" x2="700" y2="0" stroke="#ddd" stroke-width="1" opacity="1"/><line transform="translate(0,0)" x2="700" y2="0" stroke="#ddd" stroke-width="1" opacity="1"/></g></g><path class="foreground" aria-hidden="true" d="" pointer-events="none" display="none"/></g></g><g class="mark-group role-axis" role="graphics-symbol" aria-roledescription="axis" aria-label="X-axis titled 'Commit' for a discrete scale with 10 values: bfd13910, a05855cc, 4064739a, b7f13fb3, 7160eea2, ending with 3af5bf9a"><g transform="translate(0.5,280.5)"><path class="background" aria-hidden="true" d="M0,0h0v0h0Z" pointer-events="none"/><g><g class="mark-rule role-axis-tick" pointer-events="none"><line transform="translate(35,0)" x2="0" y2="5" stroke="#888" stroke-width="1" opacity="1"/><line transform="translate(105,0)" x2="0" y2="5" stroke="#888" stroke-width="1" opacity="1"/><line transform="translate(175,0)" x2="0" y2="5" stroke="#888" stroke-width="1" opacity="1"/><line transform="translate(245,0)" x2="0" y2="5" stroke="#888" stroke-width="1" opacity="1"/><line transform="translate(315,0)" x2="0" y2="5" stroke="#888" stroke-width="1" opacity="1"/><line transform="translate(385,0)" x2="0" y2="5" stroke="#888" stroke-width="1" opacity="1"/><line transform="translate(455,0)" x2="0" y2="5" stroke="#888" stroke-width="1" opacity="1"/><line transform="translate(525,0)" x2="0" y2="5" stroke="#888" stroke-width="1" opacity="1"/><line transform="translate(595,0)" x2="0" y2="5" stroke="#888" stroke-width="1" opacity="1"/><line transform="translate(665,0)" x2="0" y2="5" stroke="#888" stroke-width="1" opacity="1"/></g><g class="mark-text role-axis-label" pointer-events="none"><text text-anchor="end" transform="translate(35,7) rotate(270) translate(0,3)" font-family="sans-serif" font-size="10px" fill="#000" opacity="1">bfd13910</text><text text-anchor="end" transform="translate(105,7) rotate(270) translate(0,3)" font-family="sans-serif" font-size="10px" fill="#000" opacity="1">a05855cc</text><text text-anchor="end" transform="translate(175,7) rotate(270) translate(0,3)" font-family="sans-serif" font-size="10px" fill="#000" opacity="1">4064739a</text><text text-anchor="end" transform="translate(245,7) rotate(270) translate(0,3)" font-family="sans-serif" font-size="10px" fill="#000" opacity="1">b7f13fb3</text><text text-anchor="end" transform="translate(315,7) rotate(270) translate(0,3)" font-family="sans-serif" font-size="10px" fill="#000" opacity="1">7160eea2</text><text text-anchor="end" transform="translate(385,7) rotate(270) translate(0,3)" font-family="sans-serif" font-size="10px" fill="#000" opacity="1">6c5aeef5</text><text text-anchor="end" transform="translate(455,7) rotate(270) translate(0,3)" font-family="sans-serif" font-size="10px" fill="#000" opacity="1">b0428a3d</text><text text-anchor="end" transform="translate(525,7) rotate(270) translate(0,3)" font-family="sans-serif" font-size="10px" fill="#000" opacity="1">2a35fb8a</text><text text-anchor="end" transform="translate(595,7) rotate(270) translate(0,3)" font-family="sans-serif" font-size="10px" fill="#000" opacity="1">0d288678</text><text text-anchor="end" transform="translate(665,7) rotate(270) translate(0,3)" font-family="sans-serif" font-size="10px" fill="#000" opacity="1">3af5bf9a</text></g><g class="mark-rule role-axis-domain" pointer-events="none"><line transform="translate(0,0)" x2="700" y2="0" stroke="#888" stroke-width="1" opacity="1"/></g><g class="mark-text role-axis-title" pointer-events="none"><text text-anchor="middle" transform="translate(350,64.4921875)" font-family="sans-serif" font-size="11px" font-weight="bold" fill="#000" opacity="1">Commit</text></g></g><path class="foreground" aria-hidden="true" d="" pointer-events="none" display="none"/></g></g><g class="mark-group role-axis" role="graphics-symbol" aria-roledescription="axis" aria-label="Y-axis titled 'Time (µs)' for a linear scale with values from 0 to 800"><g transform="translate(0.5,0.5)"><path class="background" aria-hidden="true" d="M0,0h0v0h0Z" pointer-events="none"/><g><g class="mark-rule role-axis-tick" pointer-events="none"><line transform="translate(0,280)" x2="-5" y2="0" stroke="#888" stroke-width="1" opacity="1"/><line transform="translate(0,245)" x2="-5" y2="0" stroke="#888" stroke-width="1" opacity="1"/><line transform="translate(0,210)" x2="-5" y2="0" stroke="#888" stroke-width="1" opacity="1"/><line transform="translate(0,175)" x2="-5" y2="0" stroke="#888" stroke-width="1" opacity="1"/><line transform="translate(0,140)" x2="-5" y2="0" stroke="#888" stroke-width="1" opacity="1"/><line transform="translate(0,105)" x2="-5" y2="0" stroke="#888" stroke-width="1" opacity="1"/><line transform="translate(0,70)" x2="-5" y2="0" stroke="#888" stroke-width="1" opacity="1"/><line transform="translate(0,35)" x2="-5" y2="0" stroke="#888" stroke-width="1" opacity="1"/><line transform="translate(0,0)" x2="-5" y2="0" stroke="#888" stroke-width="1" opacity="1"/></g><g class="mark-text role-axis-label" pointer-events="none"><text text-anchor="end" transform="translate(-7,283)" font-family="sans-serif" font-size="10px" fill="#000" opacity="1">0</text><text text-anchor="end" transform="translate(-7,248)" font-family="sans-serif" font-size="10px" fill="#000" opacity="1">100</text><text text-anchor="end" transform="translate(-7,213)" font-family="sans-serif" font-size="10px" fill="#000" opacity="1">200</text><text text-anchor="end" transform="translate(-7,178)" font-family="sans-serif" font-size="10px" fill="#000" opacity="1">300</text><text text-anchor="end" transform="translate(-7,143)" font-family="sans-serif" font-size="10px" fill="#000" opacity="1">400</text><text text-anchor="end" transform="translate(-7,108)" font-family="sans-serif" font-size="10px" fill="#000" opacity="1">500</text><text text-anchor="end" transform="translate(-7,73)" font-family="sans-serif" font-size="10px" fill="#000" opacity="1">600</text><text text-anchor="end" transform="translate(-7,38)" font-family="sans-serif" font-size="10px" fill="#000" opacity="1">700</text><text text-anchor="end" transform="translate(-7,3)" font-family="sans-serif" font-size="10px" fill="#000" opacity="1">800</text></g><g class="mark-rule role-axis-domain" pointer-events="none"><line transform="translate(0,280)" x2="0" y2="-280" stroke="#888" stroke-width="1" opacity="1"/></g><g class="mark-text role-axis-title" pointer-events="none"><text text-anchor="middle" transform="translate(-27.6845703125,140) rotate(-90) translate(0,-2)" font-family="sans-serif" font-size="11px" font-weight="bold" fill="#000" opacity="1">Time (µs)</text></g></g><path class="foreground" aria-hidden="true" d="" pointer-events="none" display="none"/></g></g><g class="mark-group role-scope layer_0_pathgroup" role="graphics-object" aria-roledescription="group mark container"><g transform="translate(0,0)"><path class="background" aria-hidden="true" d="M0,0h700v280h-700Z"/><g><g class="mark-line role-mark layer_0_marks" role="graphics-object" aria-roledescription="line mark container"><path aria-label="Commit: bfd13910; Time (µs): 789; Benchmark: sphere_128_64_us; label: bfd13910; metric: sphere_128_64_us; us: 789; subject: add SceneProperties uniform and egui controls" role="graphics-symbol" aria-roledescription="line mark" d="M35,3.85L105,9.8L175,139.3L245,140.7L315,115.85L385,127.4L455,122.85L525,121.45L595,137.55L665,130.2" stroke="#f58518" stroke-width="2"/></g></g><path class="foreground" aria-hidden="true" d="" display="none"/></g><g transform="translate(0,0)"><path class="background" aria-hidden="true" d="M0,0h700v280h-700Z"/><g><g class="mark-line role-mark layer_0_marks" role="graphics-object" aria-roledescription="line mark container"><path aria-label="Commit: bfd13910; Time (µs): 3; Benchmark: scene_update_us; label: bfd13910; metric: scene_update_us; us: 3; subject: add SceneProperties uniform and egui controls" role="graphics-symbol" aria-roledescription="line mark" d="M35,278.95L105,278.95L175,279.65L245,279.65L315,279.3L385,279.65L455,279.3L525,279.3L595,279.65L665,279.65" stroke="#4c78a8" stroke-width="2"/></g></g><path class="foreground" aria-hidden="true" d="" display="none"/></g></g><g class="mark-symbol role-mark layer_1_marks" role="graphics-object" aria-roledescription="symbol mark container"><path aria-label="Commit: bfd13910; Time (µs): 789; Benchmark: sphere_128_64_us; label: bfd13910; metric: sphere_128_64_us; us: 789; subject: add SceneProperties uniform and egui controls" role="graphics-symbol" aria-roledescription="point" transform="translate(35,3.850000000000011)" d="M2.739,0A2.739,2.739,0,1,1,-2.739,0A2.739,2.739,0,1,1,2.739,0" fill="#f58518" stroke-width="2" opacity="1"/><path aria-label="Commit: a05855cc; Time (µs): 772; Benchmark: sphere_128_64_us; label: a05855cc; metric: sphere_128_64_us; us: 772; subject: specify astronomore binary in just run" role="graphics-symbol" aria-roledescription="point" transform="translate(105,9.800000000000008)" d="M2.739,0A2.739,2.739,0,1,1,-2.739,0A2.739,2.739,0,1,1,2.739,0" fill="#f58518" stroke-width="2" opacity="1"/><path aria-label="Commit: 4064739a; Time (µs): 402; Benchmark: sphere_128_64_us; label: 4064739a; metric: sphere_128_64_us; us: 402; subject: add runtime sphere tessellation controls to egui" role="graphics-symbol" aria-roledescription="point" transform="translate(175,139.3)" d="M2.739,0A2.739,2.739,0,1,1,-2.739,0A2.739,2.739,0,1,1,2.739,0" fill="#f58518" stroke-width="2" opacity="1"/><path aria-label="Commit: b7f13fb3; Time (µs): 398; Benchmark: sphere_128_64_us; label: b7f13fb3; metric: sphere_128_64_us; us: 398; subject: feat: add planetary textures and orbital models" role="graphics-symbol" aria-roledescription="point" transform="translate(245,140.7)" d="M2.739,0A2.739,2.739,0,1,1,-2.739,0A2.739,2.739,0,1,1,2.739,0" fill="#f58518" stroke-width="2" opacity="1"/><path aria-label="Commit: 7160eea2; Time (µs): 469; Benchmark: sphere_128_64_us; label: 7160eea2; metric: sphere_128_64_us; us: 469; subject: Add toggleable name overlays for all celestial bodies" role="graphics-symbol" aria-roledescription="point" transform="translate(315,115.84999999999998)" d="M2.739,0A2.739,2.739,0,1,1,-2.739,0A2.739,2.739,0,1,1,2.739,0" fill="#f58518" stroke-width="2" opacity="1"/><path aria-label="Commit: 6c5aeef5; Time (µs): 436; Benchmark: sphere_128_64_us; label: 6c5aeef5; metric: sphere_128_64_us; us: 436; subject: Translate all GUI strings from German to English" role="graphics-symbol" aria-roledescription="point" transform="translate(385,127.39999999999999)" d="M2.739,0A2.739,2.739,0,1,1,-2.739,0A2.739,2.739,0,1,1,2.739,0" fill="#f58518" stroke-width="2" opacity="1"/><path aria-label="Commit: b0428a3d; Time (µs): 449; Benchmark: sphere_128_64_us; label: b0428a3d; metric: sphere_128_64_us; us: 449; subject: Fix name label alignment: render below projected body position" role="graphics-symbol" aria-roledescription="point" transform="translate(455,122.85)" d="M2.739,0A2.739,2.739,0,1,1,-2.739,0A2.739,2.739,0,1,1,2.739,0" fill="#f58518" stroke-width="2" opacity="1"/><path aria-label="Commit: 2a35fb8a; Time (µs): 453; Benchmark: sphere_128_64_us; label: 2a35fb8a; metric: sphere_128_64_us; us: 453; subject: Merge pull request #14 from AntonHermann/claude/celestial-name-overlays-fEV49" role="graphics-symbol" aria-roledescription="point" transform="translate(525,121.44999999999999)" d="M2.739,0A2.739,2.739,0,1,1,-2.739,0A2.739,2.739,0,1,1,2.739,0" fill="#f58518" stroke-width="2" opacity="1"/><path aria-label="Commit: 0d288678; Time (µs): 407; Benchmark: sphere_128_64_us; label: 0d288678; metric: sphere_128_64_us; us: 407; subject: docs: update README and project plan to reflect current state (#13)" role="graphics-symbol" aria-roledescription="point" transform="translate(595,137.54999999999998)" d="M2.739,0A2.739,2.739,0,1,1,-2.739,0A2.739,2.739,0,1,1,2.739,0" fill="#f58518" stroke-width="2" opacity="1"/><path aria-label="Commit: 3af5bf9a; Time (µs): 428; Benchmark: sphere_128_64_us; label: 3af5bf9a; metric: sphere_128_64_us; us: 428; subject: Add historical benchmark range script and marimo report notebook" role="graphics-symbol" aria-roledescription="point" transform="translate(665,130.2)" d="M2.739,0A2.739,2.739,0,1,1,-2.739,0A2.739,2.739,0,1,1,2.739,0" fill="#f58518" stroke-width="2" opacity="1"/><path aria-label="Commit: bfd13910; Time (µs): 3; Benchmark: scene_update_us; label: bfd13910; metric: scene_update_us; us: 3; subject: add SceneProperties uniform and egui controls" role="graphics-symbol" aria-roledescription="point" transform="translate(35,278.95)" d="M2.739,0A2.739,2.739,0,1,1,-2.739,0A2.739,2.739,0,1,1,2.739,0" fill="#4c78a8" stroke-width="2" opacity="1"/><path aria-label="Commit: a05855cc; Time (µs): 3; Benchmark: scene_update_us; label: a05855cc; metric: scene_update_us; us: 3; subject: specify astronomore binary in just run" role="graphics-symbol" aria-roledescription="point" transform="translate(105,278.95)" d="M2.739,0A2.739,2.739,0,1,1,-2.739,0A2.739,2.739,0,1,1,2.739,0" fill="#4c78a8" stroke-width="2" opacity="1"/><path aria-label="Commit: 4064739a; Time (µs): 1; Benchmark: scene_update_us; label: 4064739a; metric: scene_update_us; us: 1; subject: add runtime sphere tessellation controls to egui" role="graphics-symbol" aria-roledescription="point" transform="translate(175,279.65000000000003)" d="M2.739,0A2.739,2.739,0,1,1,-2.739,0A2.739,2.739,0,1,1,2.739,0" fill="#4c78a8" stroke-width="2" opacity="1"/><path aria-label="Commit: b7f13fb3; Time (µs): 1; Benchmark: scene_update_us; label: b7f13fb3; metric: scene_update_us; us: 1; subject: feat: add planetary textures and orbital models" role="graphics-symbol" aria-roledescription="point" transform="translate(245,279.65000000000003)" d="M2.739,0A2.739,2.739,0,1,1,-2.739,0A2.739,2.739,0,1,1,2.739,0" fill="#4c78a8" stroke-width="2" opacity="1"/><path aria-label="Commit: 7160eea2; Time (µs): 2; Benchmark: scene_update_us; label: 7160eea2; metric: scene_update_us; us: 2; subject: Add toggleable name overlays for all celestial bodies" role="graphics-symbol" aria-roledescription="point" transform="translate(315,279.3)" d="M2.739,0A2.739,2.739,0,1,1,-2.739,0A2.739,2.739,0,1,1,2.739,0" fill="#4c78a8" stroke-width="2" opacity="1"/><path aria-label="Commit: 6c5aeef5; Time (µs): 1; Benchmark: scene_update_us; label: 6c5aeef5; metric: scene_update_us; us: 1; subject: Translate all GUI strings from German to English" role="graphics-symbol" aria-roledescription="point" transform="translate(385,279.65000000000003)" d="M2.739,0A2.739,2.739,0,1,1,-2.739,0A2.739,2.739,0,1,1,2.739,0" fill="#4c78a8" stroke-width="2" opacity="1"/><path aria-label="Commit: b0428a3d; Time (µs): 2; Benchmark: scene_update_us; label: b0428a3d; metric: scene_update_us; us: 2; subject: Fix name label alignment: render below projected body position" role="graphics-symbol" aria-roledescription="point" transform="translate(455,279.3)" d="M2.739,0A2.739,2.739,0,1,1,-2.739,0A2.739,2.739,0,1,1,2.739,0" fill="#4c78a8" stroke-width="2" opacity="1"/><path aria-label="Commit: 2a35fb8a; Time (µs): 2; Benchmark: scene_update_us; label: 2a35fb8a; metric: scene_update_us; us: 2; subject: Merge pull request #14 from AntonHermann/claude/celestial-name-overlays-fEV49" role="graphics-symbol" aria-roledescription="point" transform="translate(525,279.3)" d="M2.739,0A2.739,2.739,0,1,1,-2.739,0A2.739,2.739,0,1,1,2.739,0" fill="#4c78a8" stroke-width="2" opacity="1"/><path aria-label="Commit: 0d288678; Time (µs): 1; Benchmark: scene_update_us; label: 0d288678; metric: scene_update_us; us: 1; subject: docs: update README and project plan to reflect current state (#13)" role="graphics-symbol" aria-roledescription="point" transform="translate(595,279.65000000000003)" d="M2.739,0A2.739,2.739,0,1,1,-2.739,0A2.739,2.739,0,1,1,2.739,0" fill="#4c78a8" stroke-width="2" opacity="1"/><path aria-label="Commit: 3af5bf9a; Time (µs): 1; Benchmark: scene_update_us; label: 3af5bf9a; metric: scene_update_us; us: 1; subject: Add historical benchmark range script and marimo report notebook" role="graphics-symbol" aria-roledescription="point" transform="translate(665,279.65000000000003)" d="M2.739,0A2.739,2.739,0,1,1,-2.739,0A2.739,2.739,0,1,1,2.739,0" fill="#4c78a8" stroke-width="2" opacity="1"/></g><g class="mark-group role-legend" role="graphics-symbol" aria-roledescription="legend" aria-label="Symbol legend titled 'Benchmark' for fill color and stroke color with 2 values: scene_update_us, sphere_128_64_us"><g transform="translate(718,0)"><path class="background" aria-hidden="true" d="M0,0h102v45h-102Z" pointer-events="none"/><g><g class="mark-group role-legend-entry"><g transform="translate(0,16)"><path class="background" aria-hidden="true" d="M0,0h0v0h0Z" pointer-events="none"/><g><g class="mark-group role-scope" role="graphics-object" aria-roledescription="group mark container"><g transform="translate(0,0)"><path class="background" aria-hidden="true" d="M0,0h101.6298828125v12.5h-101.6298828125Z" pointer-events="none" opacity="1"/><g><g class="mark-symbol role-legend-symbol" pointer-events="none"><path transform="translate(6,6)" d="M5,0A5,5,0,1,1,-5,0A5,5,0,1,1,5,0" fill="#4c78a8" stroke="#4c78a8" stroke-width="1.5" opacity="1"/></g><g class="mark-text role-legend-label" pointer-events="none"><text text-anchor="start" transform="translate(16,9)" font-family="sans-serif" font-size="10px" fill="#000" opacity="1">scene_update_us</text></g></g><path class="foreground" aria-hidden="true" d="" pointer-events="none" display="none"/></g><g transform="translate(0,16)"><path class="background" aria-hidden="true" d="M0,0h101.6298828125v12.5h-101.6298828125Z" pointer-events="none" opacity="1"/><g><g class="mark-symbol role-legend-symbol" pointer-events="none"><path transform="translate(6,6)" d="M5,0A5,5,0,1,1,-5,0A5,5,0,1,1,5,0" fill="#f58518" stroke="#f58518" stroke-width="1.5" opacity="1"/></g><g class="mark-text role-legend-label" pointer-events="none"><text text-anchor="start" transform="translate(16,9)" font-family="sans-serif" font-size="10px" fill="#000" opacity="1">sphere_128_64_us</text></g></g><path class="foreground" aria-hidden="true" d="" pointer-events="none" display="none"/></g></g></g><path class="foreground" aria-hidden="true" d="" pointer-events="none" display="none"/></g></g><g class="mark-text role-legend-title" pointer-events="none"><text text-anchor="start" transform="translate(0,9)" font-family="sans-serif" font-size="11px" font-weight="bold" fill="#000" opacity="1">Benchmark</text></g></g><path class="foreground" aria-hidden="true" d="" pointer-events="none" display="none"/></g></g><g class="mark-group role-title"><g transform="translate(350,-22)"><path class="background" aria-hidden="true" d="M0,0h0v0h0Z" pointer-events="none"/><g><g class="mark-text role-title-text" role="graphics-symbol" aria-roledescription="title" aria-label="Title text 'GPU Benchmarks per Commit'" pointer-events="none"><text text-anchor="middle" transform="translate(0,10)" font-family="sans-serif" font-size="13px" font-weight="bold" fill="#000" opacity="1">GPU Benchmarks per Commit</text></g></g><path class="foreground" aria-hidden="true" d="" pointer-events="none" display="none"/></g></g></g><path class="foreground" aria-hidden="true" d="" display="none"/></g></g></g></svg>